<svg width="59" height="70" viewBox="0 0 59 70" fill="none" xmlns="http://www.w3.org/2000/svg">
<path fill-rule="evenodd" clip-rule="evenodd" d="M37.0584 35.4346L38.3 34.6705C40.6878 33.1423 42.7891 31.0411 44.1262 28.5578C45.6544 26.0745 46.4185 23.1137 46.4185 20.1528V18.6247H47.9466C52.2446 18.6247 55.683 15.0907 55.683 10.8883C55.683 6.59026 52.1491 3.15186 47.9466 3.15186C45.5589 3.15186 43.2666 4.298 41.8339 6.20822L40.8788 7.44986L39.6371 6.49475C37.0583 4.48901 33.9065 3.34288 30.6592 3.15186C28.94 3.05635 27.2207 3.15186 25.5015 3.53389C23.5913 3.91594 21.7765 4.58452 20.0573 5.53963C19.8663 5.63515 19.6992 5.75455 19.532 5.87395C19.3649 5.99333 19.1978 6.11272 19.0067 6.20822L17.8606 6.97231L17.001 5.92168C15.5684 4.10696 13.3716 3.05634 11.0794 3.05634C6.78138 3.05634 3.34289 6.59026 3.34289 10.7927C3.34289 15.0907 6.87689 18.5291 11.0794 18.5291H12.6075V20.0573C12.6075 24.1643 14.0402 28.1758 16.81 31.2321C18.4337 33.0468 20.3439 34.4795 22.4451 35.4346C24.6419 36.4852 27.0297 36.9628 29.513 36.9628V40.0191C26.6476 40.0191 23.7823 39.4461 21.2035 38.2045C19.0068 37.1538 17.001 35.7211 15.2818 34.0019C13.9446 34.4795 12.6075 35.1481 11.3658 36.0077C9.93318 37.0583 8.59602 38.2999 7.5454 39.7326C5.25313 42.6935 4.10702 46.2274 4.10702 49.9523C4.10702 54.4413 5.92169 58.7393 9.07356 61.8912C12.2254 65.1386 16.5234 66.8578 21.0124 66.8578H33.1424C34.7661 66.8578 36.1988 66.0937 37.0584 64.661C37.918 63.2283 37.9179 61.6047 37.1538 60.172C35.7212 57.5932 33.7155 55.3964 31.1367 53.8683C28.4624 52.3401 25.5015 51.4805 22.4451 51.4805V48.4241C26.0745 48.4241 29.6085 49.4747 32.6649 51.2894C35.6257 53.0087 38.109 55.5875 39.8282 58.6438L43.2666 64.661C43.8396 65.7116 44.7948 66.4757 45.9409 66.7623C47.0871 67.0488 48.3287 66.9533 49.3793 66.3802C50.4299 65.8072 51.194 64.852 51.576 63.6104C51.958 62.3687 51.7671 61.1271 51.194 60.0765L37.0584 35.4346ZM49.3793 21.5855C49.1883 24.5463 48.3286 27.5072 46.8004 30.086C45.3678 32.6648 43.4576 34.766 40.6878 36.1987L53.3907 58.3573C54.3458 60.172 54.6325 62.2732 54.0594 64.279C53.4863 66.2847 52.1491 67.9084 50.3344 68.8635C49.2838 69.4366 48.0421 69.7231 46.8004 69.7231C46.1319 69.7231 45.3678 69.6276 44.6992 69.4366C42.789 68.8635 41.1654 67.6219 40.2103 65.9027L39.7327 65.043C39.6372 65.1863 39.5656 65.3296 39.4939 65.4729C39.4223 65.6161 39.3507 65.7594 39.2552 65.9027C37.918 68.1949 35.4347 69.6276 32.7604 69.6276H20.6305C17.9562 69.6276 15.3773 69.15 12.894 68.0994C10.6017 67.0488 8.405 65.6161 6.59029 63.8014C4.77558 61.9867 3.34291 59.8855 2.29229 57.4977C1.33718 55.1099 0.764136 52.4356 0.764136 49.7613C0.764136 47.5645 1.14616 45.4633 1.81473 43.362C2.48331 41.3563 3.53391 39.5416 4.77556 37.8224C6.0172 36.1987 7.54545 34.766 9.26465 33.5244C10.4108 32.7603 11.6524 32.0917 12.894 31.5187C10.7928 28.5578 9.55118 25.1194 9.26465 21.49C6.97238 21.2035 4.87111 20.1528 3.15191 18.4336C1.14618 16.3324 0 13.7536 0 10.7927C0 7.83189 1.14618 5.15759 3.15191 3.15186C5.25316 1.14612 7.92747 0 10.7928 0C13.6581 0 16.237 1.0506 18.2427 2.96082C18.2905 2.96082 18.3143 2.93694 18.3382 2.91306C18.3621 2.88919 18.3859 2.86533 18.4337 2.86533C20.4394 1.81471 22.5407 1.0506 24.6419 0.573044C26.7432 0.0954895 28.7489 -3.05176e-05 30.7546 0.0954895C34.1931 0.382019 37.4404 1.43266 40.2103 3.24738C41.0699 2.38777 41.9294 1.71919 42.98 1.24164C44.5082 0.477539 46.132 0.0954895 47.8512 0.0954895C50.812 0.0954895 53.4863 1.24164 55.4921 3.24738C57.4978 5.34862 58.6438 7.92741 58.6438 10.8883C58.6438 13.8491 57.4978 16.5234 55.4921 18.5291C53.8684 20.2484 51.6716 21.299 49.3793 21.5855ZM18.3381 20.1528C18.3381 18.9111 19.2931 17.9561 20.5348 17.9561C21.6809 17.9561 22.7316 18.9111 22.7316 20.1528C22.7316 21.3944 21.7764 22.3496 20.5348 22.3496C19.2931 22.3496 18.3381 21.3944 18.3381 20.1528ZM25.788 21.681C25.788 19.5797 27.5072 17.9561 29.5129 17.9561C31.6142 17.9561 33.2379 19.5797 33.2379 21.681V25.4059C33.2379 27.5072 31.5187 29.1309 29.5129 29.1309C27.4117 29.1309 25.788 27.4116 25.788 25.4059V21.681ZM38.5865 17.9561C37.3449 17.9561 36.3898 18.9111 36.3898 20.1528C36.3898 21.3944 37.3449 22.3496 38.5865 22.3496C39.8282 22.3496 40.7833 21.3944 40.7833 20.1528C40.7833 18.9111 39.8282 17.9561 38.5865 17.9561Z" fill="black"/>
</svg>
