<svg width="768" height="484" viewBox="0 0 768 484" fill="none" xmlns="http://www.w3.org/2000/svg">
<path d="M743.381 132.365H744.987L744.452 131.295L742.846 127.551L740.973 125.68L739.367 125.412L738.297 126.214L739.367 127.017L739.635 126.482H740.17L741.508 129.423L741.776 128.621L742.846 130.225L741.24 132.097L738.297 133.167H736.424L735.086 132.365L734.818 130.76L734.283 129.958H732.41V127.284L730.537 125.68H729.199L728.931 125.412V125.68L727.058 125.947L725.987 124.343L726.523 123.808L725.72 122.203L726.79 121.936V121.668L727.593 120.866L727.325 120.064L730.001 117.925V117.657L729.199 117.925L727.861 117.657L726.523 114.983H725.987L724.917 115.518L724.649 116.588L723.044 117.123V118.192L721.706 119.797L706.185 123.005L696.284 125.145L696.017 136.643L696.284 136.91L704.847 135.039L717.96 132.097H718.762L724.114 130.493L724.917 132.632H725.452L725.987 134.771L728.128 135.841L729.199 136.91L730.001 138.247H730.804L731.339 137.98L731.072 137.178L731.339 135.573H732.677L733.213 135.039V133.434L735.353 133.702L735.621 135.039L736.156 135.841V136.376V136.108L737.762 135.306V134.504L738.297 134.236L740.438 133.434L742.578 132.365H743.381Z" fill="black"/>
<path d="M738.564 138.783L737.494 138.515L737.227 137.713L736.424 137.98L735.353 138.783L734.818 140.654L734.015 141.189L735.086 141.724L736.156 140.654L738.297 140.12L739.367 139.852L739.1 138.248L738.564 138.783Z" fill="black"/>
<path d="M744.719 137.178L744.987 137.98L743.916 139.317H741.776L742.043 139.852L742.578 140.119H745.522L746.325 139.852V138.515L744.719 137.178Z" fill="black"/>
<path d="M163.769 477.582L162.698 474.908L158.952 471.165L157.079 471.699V473.571L156.811 474.641H157.614L158.149 474.373L158.684 475.176L158.149 475.443H157.079L158.417 476.513L159.755 477.047L160.29 477.582V478.384L158.684 479.187V479.989L162.163 483.732L162.966 483.465L162.698 481.861L161.36 481.593L160.29 479.454H160.825L163.501 481.326L164.571 483.198H165.642L165.374 478.919L163.769 477.582Z" fill="black"/>
<path d="M58.6035 463.143V463.945H59.9415L59.6739 463.41L58.6035 463.143Z" fill="black"/>
<path d="M157.614 477.047L157.079 478.117L157.614 478.652L158.417 478.919L159.219 477.315L157.614 477.047Z" fill="black"/>
<path d="M55.1248 405.918H54.322L53.7868 406.453L55.1248 406.988V405.918Z" fill="black"/>
<path d="M36.6606 468.758L37.731 469.56L37.9986 468.491L37.1958 467.956L36.6606 468.758Z" fill="black"/>
<path d="M46.5617 471.699V470.362L45.7589 471.165V471.699L46.2941 472.502L47.0969 471.699H46.5617Z" fill="black"/>
<path d="M43.3505 469.026L44.6885 468.758L44.4209 468.223L43.8857 467.956L43.3505 468.491L42.5477 468.223H41.2098L40.9422 469.56L42.2801 470.363L43.3505 469.828V469.026Z" fill="black"/>
<path d="M44.6885 470.63H43.6181L43.3505 470.897V471.967L42.8153 472.769H43.3505L43.8857 471.967H44.4209L45.2237 470.897L45.4913 469.828H44.9561L44.6885 470.63Z" fill="black"/>
<path d="M172.599 472.769L173.134 471.699L172.599 471.164H170.994L169.121 469.56H167.515L165.909 468.49H164.571L164.304 467.153L163.233 466.886L162.966 465.549L162.163 465.014V463.677L157.882 457.527L156.544 456.457V455.388L152.797 452.446L152.262 451.644L150.924 449.772L149.318 449.505V447.633L148.248 446.563L146.91 445.761L145.305 447.098L143.967 448.703L143.431 450.574L142.361 450.842L140.22 452.981L139.417 452.714V450.574L137.544 448.97L135.671 447.098L135.136 445.494L132.995 444.424L133.263 442.552H130.854L130.319 443.355H129.249L128.714 442.82L127.643 443.622L126.305 442.552V371.423L120.418 367.947L119.08 367.679L117.207 368.482H115.334L113.461 367.145L109.714 366.61L104.898 363.668L100.081 363.401L98.4753 363.936V362.331L96.8697 361.797L97.6725 360.994V360.192L94.9965 359.39H92.8558L92.5882 359.657L91.7854 359.123L92.053 356.983L91.2502 356.181L89.1094 358.588H88.5742V357.785L89.9122 357.251V356.448L88.3066 354.577H87.5038L83.7575 356.983H80.5463L80.8139 356.181H79.2084L74.9268 359.123H73.3213L72.7861 358.32L70.6453 359.657L67.7017 362.599L65.2934 365.005L63.9554 365.808L61.8146 366.075L59.9415 365.54L58.0683 364.471L55.9275 367.947L55.6599 369.819L57.8007 371.69L59.6739 375.434L59.9415 379.98L62.3498 381.584L65.0258 381.852L65.561 382.654L64.4906 384.526L65.0258 386.665L63.6878 384.526V382.654L62.3498 382.387V383.456L62.885 385.061L65.2934 388.269H64.223L62.3498 389.072L57.2655 386.932V385.328L58.3359 384.258V383.189L56.4627 382.654L54.5895 382.921H50.5756L51.9136 384.793L50.308 383.456L43.3505 384.526L42.5477 385.595L46.8293 389.606L46.0265 390.676L45.7589 392.281L45.2237 393.083V394.687L48.7024 397.629L52.1812 397.896L56.1951 399.233H57.8007L58.3359 398.966H61.547V398.163L62.6174 399.233V400.837H60.7443V403.511L61.2794 406.185L58.6035 408.325H57.2655L55.3923 407.522L54.5895 407.79L52.1812 409.394L50.5756 409.662L49.5052 407.255H46.8293L44.9561 408.86L44.6885 410.464L42.0125 412.068L37.4634 415.545L37.1958 418.219L37.731 419.823L38.5338 420.893L39.3366 420.625L40.1394 421.427L39.6042 421.962L38.2662 422.765L39.3366 423.834L36.9282 424.904L37.731 426.508L39.069 428.647L39.8718 431.856L43.0829 433.193L45.2237 432.658L46.8293 431.589L47.0969 433.461L47.3645 436.937L45.7589 438.274V441.75L45.2237 442.552H43.8857L45.2237 443.622L47.0969 443.355L47.3645 442.552L51.1108 442.285L52.984 444.424L54.0544 443.622L55.1247 447.9L55.9275 448.435L56.7303 447.9V445.761L57.5331 444.959L58.0683 445.761L58.3359 447.098L59.6739 447.633L63.6878 446.563V447.633L62.0822 448.435L60.7443 449.772L58.3359 455.655L54.8571 457.26L53.5192 458.597V459.666L52.4488 459.131L44.6885 462.073L43.3505 465.282L42.2801 465.014L42.5477 464.212L41.4774 462.875H38.5338L33.9847 465.549L32.1115 466.619H30.2383L29.9707 468.49H31.3087L31.0411 467.421H31.8439L32.1115 468.49H33.4495L33.9847 466.619L34.2523 468.49H36.1254L38.8014 465.816H39.6042L39.069 466.886L40.1394 467.688L43.6181 467.421L45.7589 466.351H47.0969V467.688L47.6321 467.153L48.1672 466.084L52.984 466.351L54.5895 465.014L53.5192 463.945L54.0544 462.875L56.1951 463.142L55.9275 462.073L58.0683 462.34L58.6035 461.538H59.6739L63.4202 459.934L63.6878 458.597L68.2369 456.725L69.8425 455.12L70.9129 454.585L71.9833 455.12L73.8565 454.318L74.9268 452.981L75.1944 451.911L76.8 451.109L77.8704 450.574L78.138 449.237L77.3352 447.9L75.462 447.633V446.563L75.9972 445.226H77.0676L78.138 443.889H79.7436L82.6871 441.215L82.9547 439.878L84.2927 438.006L87.5038 434.798L89.6446 433.995L90.9826 433.193L92.8558 433.728L93.9261 436.135H92.8558L91.5178 434.798L89.1094 436.402H87.7714L87.5038 439.076L84.8279 443.087L85.3631 444.692H87.2362L86.9686 445.761H85.6307L83.7575 447.098V447.9L85.3631 448.703L88.039 448.168L89.377 446.831L90.4474 447.098L92.8558 445.494L93.3909 443.622H94.7289L100.081 444.157L100.884 443.355L101.686 439.611L100.348 440.413L100.884 438.541L99.5456 437.472L100.081 436.135V437.472H103.024L103.56 436.669H104.898L104.63 438.006H106.236L104.63 439.076L108.109 440.146L105.165 440.413L104.095 441.483L104.898 442.552L108.644 441.215L110.517 442.552L111.32 441.75L111.587 443.087L115.066 444.959H117.475L120.686 444.424L124.432 445.494L126.038 447.098L129.784 447.366L131.122 446.029L131.925 448.168L130.319 448.703L131.39 449.505L137.544 452.714L138.615 454.853L143.164 458.329L146.107 456.725L145.572 454.853L142.629 452.981L145.305 454.051L145.572 453.516L146.375 454.585V456.725L147.98 456.457L149.854 457.794L147.713 449.772L148.783 450.842L149.854 455.655L151.727 457.794L153.868 457.527L155.206 460.468H156.008L156.544 465.014L159.487 465.549L160.557 467.421L162.163 468.223L162.431 470.63L161.093 472.769L163.501 474.106L164.571 471.967L164.304 474.641L163.501 475.443L164.839 476.78L165.374 474.641L165.107 473.839H165.909L166.445 475.71L165.642 477.047L165.909 479.187L166.445 479.454L166.712 478.117L167.247 478.652L166.98 480.256L168.05 480.524L167.783 481.326L169.121 481.058V480.256H168.318V478.919L167.783 478.384L169.121 478.117L169.656 477.582V476.245L169.923 477.315L169.388 478.652L170.459 481.861L172.064 482.128L173.67 478.652L173.937 477.047L172.867 473.571L172.599 472.769Z" fill="black"/>
<path d="M80.8139 453.783V452.981L81.3491 452.446V452.179L80.0111 451.912L77.3352 454.853L76.8 455.12V455.655L78.138 456.725L78.4056 455.388L78.9408 456.19H81.8843L82.4195 455.655V454.318L82.1519 453.783H80.8139Z" fill="black"/>
<path d="M80.2787 458.329L80.5463 457.26H79.7435L78.138 458.062V456.992L75.9972 456.458L73.8564 456.725V459.666L73.0536 457.795H71.7157L70.9129 458.329L69.8425 460.201L71.1805 465.014H72.7861L74.9268 462.875L75.1944 463.945L80.5463 460.736L81.0815 459.934L80.2787 458.864V458.329Z" fill="black"/>
<path d="M70.3777 465.549L69.8425 465.282L68.2369 466.351L67.9693 467.154L69.5749 466.619L70.3777 466.084L70.6453 466.619L72.5185 466.886L71.4481 465.817L70.3777 465.549Z" fill="black"/>
<path d="M63.6878 469.828L62.885 470.362L63.9554 471.699L64.7582 470.897V469.828H63.6878Z" fill="black"/>
<path d="M99.8132 444.692V446.029L101.419 445.494L102.222 443.889L103.827 441.75L103.024 441.215L99.8132 444.692Z" fill="black"/>
<path d="M153.332 457.795L151.192 458.062L150.389 456.458L150.121 456.992L150.924 458.329L151.459 461.538L152.53 462.875V463.945L151.994 464.48L152.262 465.549L152.53 466.619L154.135 465.014V464.48L155.206 463.945V462.875L153.6 460.201L154.135 459.666L153.332 457.795Z" fill="black"/>
<path d="M160.022 471.432H160.825L161.093 470.362L160.022 470.63V471.432Z" fill="black"/>
<path d="M161.36 468.758L158.684 466.084H156.544L154.938 465.816L154.67 466.619L156.811 468.758L157.079 470.362L158.149 470.095H158.684L158.952 469.293L158.149 468.223L158.417 467.421L159.487 468.758V469.56H160.29L161.36 469.025V468.758Z" fill="black"/>
<path d="M152.797 468.491L151.192 464.747L151.459 464.212H150.389L148.783 463.142L148.248 463.677L147.98 462.875L147.713 461.805L148.516 462.073L150.389 463.41H151.192L150.656 461.538H149.051L148.248 460.468L149.318 461.271H150.121L150.389 460.736V459.399L146.91 457.794L146.375 458.062H145.037L144.234 458.329V460.468L145.305 461.538L146.375 463.41L147.713 464.747L147.445 467.421L148.783 466.619V466.351L148.516 465.282H149.051L149.586 466.619V469.025L150.924 470.362L151.459 471.432L152.53 473.304L153.065 473.036L152.797 471.165V468.491Z" fill="black"/>
<path d="M156.544 469.828L156.811 469.293L154.67 467.154H153.6V467.956L153.332 469.026L155.206 470.897L154.135 471.967L154.67 473.839L155.206 474.106L155.473 473.304L156.276 473.037V471.7L155.741 471.165L156.008 469.828H156.544Z" fill="black"/>
<path d="M46.8293 473.037V473.571H47.3645V473.037H46.8293Z" fill="black"/>
<path d="M9.36585 441.483L9.90104 440.413H8.83066L9.36585 441.483Z" fill="black"/>
<path d="M10.4362 446.296L9.63345 445.761L9.90105 446.831L10.4362 446.296Z" fill="black"/>
<path d="M18.7317 470.897V471.165L19.5345 471.432L19.8021 471.967L20.3373 471.432L20.6049 471.7H21.6753V470.897H18.7317Z" fill="black"/>
<path d="M30.7735 469.293L29.4356 468.491V466.619L28.3652 466.352L25.154 466.619L22.7457 467.956L22.4781 469.56L24.0836 470.095L25.4216 469.293H26.7596L30.7735 470.363V469.293Z" fill="black"/>
<path d="M19.5345 469.025H18.4641L18.7317 470.362L19.5345 469.828V469.025Z" fill="black"/>
<path d="M14.4502 469.827L14.1826 470.362L13.6474 469.293H13.1122L12.0418 468.758L10.1686 471.699L6.15469 472.234L7.22508 473.304H8.83065L9.63344 472.769L10.7038 473.036L12.577 473.304L16.0557 471.699V471.164L15.253 469.827H14.4502Z" fill="black"/>
<path d="M16.3234 468.758L16.0558 469.56L16.8585 470.362H17.9289V469.56L17.3937 468.758H16.3234Z" fill="black"/>
<path d="M7.49268 470.897L6.95749 470.362H5.08432L4.28153 471.165L2.14077 471.432L1.87317 472.234L0 473.036H3.21115L5.08432 471.967H6.6899L7.49268 470.897Z" fill="black"/>
<path d="M30.2383 427.31L32.1115 428.647L34.2523 428.915L35.0551 427.31L35.3226 426.508L34.5199 424.904L33.1819 424.102L32.1115 424.369L31.3087 424.636L30.5059 424.369H29.1679L28.6328 425.171L29.4355 426.776L30.2383 427.31Z" fill="black"/>
<path d="M34.2523 469.828L34.7875 469.293L33.7171 469.025L34.2523 469.828Z" fill="black"/>
<path d="M30.7735 472.501H32.1115L30.7735 471.699V472.501Z" fill="black"/>
<path d="M25.6892 394.42L24.8864 396.292L25.6892 396.827H27.83L29.1679 398.698L29.9707 400.303L30.5059 401.105H32.3791L33.4495 401.907L33.9847 401.105L34.2523 400.57L32.6467 399.501L30.7735 397.896V396.559L30.2383 395.757H28.3652L26.7596 394.153V393.083L25.6892 394.42Z" fill="black"/>
<path d="M41.745 390.409V389.339H40.9422V390.409H41.745Z" fill="black"/>
<path d="M11.5066 412.604L10.7038 413.138L10.9714 414.475L11.239 415.278L12.577 416.08H13.3798V415.812L11.7742 414.208L11.5066 412.604Z" fill="black"/>
<path d="M236.555 443.354L237.893 446.563L240.569 446.029V444.424L239.498 443.354H236.555Z" fill="black"/>
<path d="M225.048 433.461L224.245 433.193L223.978 433.995L222.907 432.926L223.175 431.589L221.569 428.915L220.767 428.38L219.696 428.915L218.091 430.787L215.682 431.321L216.217 432.926L218.091 435.332L218.358 436.135L219.964 435.867L221.837 436.135L223.443 436.937L226.386 436.402V435.867L225.316 435.065L225.048 433.461Z" fill="black"/>
<path d="M242.442 439.878V438.541H238.428L233.076 437.739L232.006 439.878H236.287L240.301 440.948L242.442 439.878Z" fill="black"/>
<path d="M242.977 449.505L242.174 450.575H245.653L245.118 449.238L242.977 449.505Z" fill="black"/>
<path d="M272.413 466.351L272.68 465.014L272.145 464.48H270.539V462.34L270.004 461.271L267.863 459.399L264.117 457.794H261.709L259.033 455.388L257.962 454.853L256.357 455.12L256.089 457.794L257.427 459.399L257.695 460.201L253.681 463.945V465.014L255.019 467.688L256.624 471.165V473.304L256.089 474.373V477.047L259.568 478.919L260.638 479.722L261.441 478.919L263.314 475.978L267.061 473.571L269.737 473.036L271.877 472.234L273.215 471.165L275.891 468.491L273.751 467.421L272.413 466.351Z" fill="black"/>
<path d="M254.484 445.227L253.413 444.959L250.47 442.82L248.864 442.553L246.456 443.622L245.385 441.216L243.512 440.948L242.709 442.285L242.442 443.622L244.85 445.762L246.456 446.029L246.991 446.831L247.259 449.505H250.202L254.751 447.366L254.484 445.227Z" fill="black"/>
<path d="M183.838 423.567L182.233 424.369L181.698 425.973L182.5 426.508L183.571 425.439L185.176 424.904L185.444 422.765H184.106L183.838 423.567Z" fill="black"/>
<path d="M193.204 418.753L189.725 421.16V423.032L191.866 424.101L193.472 425.171L195.613 425.439L197.753 423.567V421.962L198.288 420.625V419.288L197.486 418.753H193.204Z" fill="black"/>
<path d="M660.694 206.97L662.3 204.831L660.159 203.227L659.089 204.564L659.624 205.098H659.891L660.426 205.633L660.694 206.168V206.435V206.97Z" fill="black"/>
<path d="M526.093 376.504L523.417 373.83L524.22 370.354L564.36 366.343V365.54L563.022 364.203L562.486 362.866L563.022 357.518L560.881 352.705L561.416 350.566L561.684 347.357L563.557 344.148L563.289 343.881L561.951 343.079V340.137L560.346 338.8L557.937 333.452L547.501 296.016L511.108 299.224L511.643 300.027L510.573 355.647L514.052 382.119L515.657 382.387L515.925 382.654L517.53 379.98V377.841L518.868 376.504L520.742 377.039L523.953 382.922V384.259H523.685L526.896 383.189L527.431 382.922L527.967 377.574L527.431 377.039L526.093 376.504Z" fill="black"/>
<path d="M170.191 249.487L132.192 242.802L129.516 256.707L127.108 259.649H124.7L123.629 257.242L120.953 256.172L118.813 256.707L118.01 267.136L118.545 271.414L118.01 274.088L116.939 276.495L116.137 278.099L117.207 280.239L118.277 281.843L119.348 286.656L121.221 288.796L121.756 290.935L120.151 292.539L116.404 293.876L114.531 296.55L113.193 302.433L110.785 305.375L109.714 305.642L108.912 310.455L109.447 311.257L111.052 311.525L112.39 313.397L111.32 315.803L108.644 317.943H106.771L105.433 319.012L105.165 320.617L158.149 351.368L188.387 355.914L202.838 254.301L170.191 249.487Z" fill="black"/>
<path d="M479.532 297.352L480.067 297.62L480.334 296.55L479.264 295.48L480.067 294.411L479.799 294.143L477.926 293.876L480.334 291.469L480.87 292.004L480.602 291.202L480.87 289.598L481.94 289.865V289.598L482.743 288.795H482.475L481.405 287.191L482.743 285.854L484.081 285.587L484.348 285.052H484.884L484.348 284.517V282.913H485.151H484.884V282.645L474.715 283.447L475.518 282.11L477.926 277.832L478.996 276.762V275.425L478.194 273.821L445.279 275.693L413.703 276.227L416.914 295.748L416.379 327.569L417.985 328.906L420.125 328.104L423.604 328.906V338.532L466.152 337.463L466.955 336.661L467.222 334.789L465.884 332.917L465.349 330.51L466.152 329.975L464.814 329.173V327.569L465.617 327.301L465.082 326.767L466.687 320.082L469.363 318.745L468.293 317.408L471.236 312.059H472.842L473.645 311.525L473.377 307.246L476.321 303.235L477.391 302.7L477.123 300.294L478.729 299.492L479.532 297.352Z" fill="black"/>
<path d="M8.56306 163.651L6.68989 166.592L6.1547 174.882L11.5066 185.578L12.577 189.054L11.7742 193.332L16.0557 197.878L15.7881 196.809L17.3937 193.065L19.2669 192.263L21.6753 196.006L19.2669 197.343L20.0697 198.413L19.5345 199.483L20.6049 202.157V207.772L16.0557 203.761V201.355L14.9854 204.563V210.714L16.0557 213.12L17.9289 215.527H20.0697L21.1401 216.864L21.6753 220.073L19.8021 223.014L18.1965 223.549L17.6613 228.63L19.8021 230.769L21.6753 235.315V237.187L22.7456 239.058L23.2808 241.465L25.4216 244.674L28.6327 252.161L29.9707 253.766L28.3651 258.311L27.83 262.322L27.5624 264.194L29.4355 265.799L31.5763 266.066L35.5902 267.403L37.9986 269.275L41.2097 269.542L43.8857 271.682L47.3645 277.297L48.7024 278.634L50.5756 279.704L54.0543 280.239L56.1951 281.308L56.9979 285.052L56.1951 286.389L57.2655 287.191H60.209L66.3638 294.678L66.8989 295.748L67.9693 297.085L69.5749 301.363L69.8425 308.048L69.5749 310.455L70.3777 312.327L106.503 316.338L108.109 316.605L110.249 315.001L110.517 313.664L110.249 312.862L108.644 312.594L107.306 310.722L108.376 304.305L109.982 304.037L111.855 301.631L113.193 296.015L115.334 292.539L119.348 291.202L120.151 290.4L119.883 289.598L118.01 287.458L116.939 282.645L115.869 281.041L114.531 277.832L115.334 276.227L56.7303 189.321L55.6599 186.113L69.3073 134.504L15.5205 119.262L14.9854 120.599V127.551L11.5066 135.306L11.7742 136.376L10.1686 138.782L4.54912 144.665L4.28152 148.676L8.83065 157.768L8.56306 163.651Z" fill="black"/>
<path d="M16.0558 200.018V201.087L16.5909 200.552V200.285L16.0558 200.018Z" fill="black"/>
<path d="M290.609 262.323L303.721 263.125L307.468 208.307L308.806 190.658L281.778 188.787L250.47 185.845L213.809 181.299L204.443 252.963L247.526 258.311L290.609 262.323Z" fill="black"/>
<path d="M706.453 136.108V136.643L704.58 137.445L704.312 136.643L696.82 138.515L698.96 150.815L700.833 152.42L697.89 155.361L698.157 156.164L702.171 152.955L703.777 151.618H704.312L706.453 148.944L707.791 149.211L710.199 148.141H711.805L716.354 146.002L718.495 145.467L719.565 144.398H719.833V144.13L720.1 143.061L717.692 133.702L706.453 136.108Z" fill="black"/>
<path d="M686.919 202.157L683.44 199.483L683.172 198.146L681.567 197.344L681.299 194.135L679.961 192.53L678.891 191.996L677.553 190.926L677.285 187.717L677.553 185.578L678.088 184.508H677.82L676.75 184.776L675.679 185.311L675.144 186.648L681.031 208.307L688.792 206.703L687.454 201.89L686.919 202.157Z" fill="black"/>
<path d="M548.839 296.015L559.543 332.917L561.684 337.73L563.557 339.602V342.276L564.895 342.811L565.162 344.415L563.289 347.624L563.022 350.833L562.486 352.705L564.627 357.251L564.092 362.599L564.36 363.401L565.698 364.738L566.233 366.61L568.641 371.156L610.654 368.214L611.189 371.423L611.724 371.958L612.527 371.691L612.794 368.749L611.724 367.145V364.471L614.132 362.866H614.668L615.738 363.668L618.949 364.203L621.09 363.936L620.555 360.727L620.287 358.855L622.16 353.507L622.695 348.426L623.498 347.624V346.822L622.695 346.555V344.95H623.498L626.709 340.137V339.602L622.428 339.335L621.893 336.393L619.752 332.65L616.541 330.778L616.273 328.371L613.33 323.023L609.316 321.151L606.907 318.477L606.64 317.408L604.767 315.536L603.429 315.268L601.555 313.664L600.485 311.792L598.879 310.723L597.809 310.455L595.401 308.851L591.654 304.572L591.387 303.235L589.246 300.294L587.105 300.561L581.486 297.085L581.218 295.481L582.556 292.272L584.162 291.47V291.202L567.303 293.609L548.839 296.015Z" fill="black"/>
<path d="M128.178 68.4553L127.376 71.9316L128.446 74.3382L131.657 77.0122L131.925 80.4885L128.446 84.4995L125.502 89.3128L124.432 90.3824V91.452L122.826 93.8586L120.686 94.6608L117.742 98.9393L117.475 101.613L119.615 102.683L120.686 105.09L119.883 105.892L119.615 107.764L117.207 112.309L110.249 142.526L129.784 146.804L149.318 150.816L188.387 157.501L195.345 113.646L194.81 113.379L193.472 109.903L192.937 108.833L192.134 109.101L189.725 112.042L181.965 110.438L180.092 111.507L174.74 110.17L173.134 112.577L170.191 109.635V106.159L169.923 104.02L168.318 102.95L165.909 99.7415L163.769 91.452L164.036 88.778L163.769 86.9061L162.966 86.1039L160.29 87.7084L157.346 89.3128L155.741 86.6387L154.135 86.1039L154.938 81.8255L160.557 67.9205V67.6531H158.417L157.079 65.7813H156.544L154.135 62.8398V60.968L151.192 54.5503L149.586 54.0155L146.107 49.4697L147.713 45.4586L144.502 39.3084L148.516 21.6597L138.079 19.5205L127.643 64.9791L128.178 68.4553Z" fill="black"/>
<path d="M506.559 172.208L505.489 168.999L502.545 164.988V161.779L466.687 163.918L467.222 164.453L468.828 166.057V167.394L469.095 167.662H470.166L472.842 171.138V173.812L471.771 176.753L470.969 177.556L470.701 179.695L469.095 181.834L465.349 183.438H463.208L461.335 183.973L460.532 186.38L461.068 187.182L462.138 187.45L462.941 189.054V192.53L462.406 193.065L461.068 194.937V196.809L459.997 198.413L457.856 198.948L457.321 199.483L457.856 200.017L457.589 202.692L457.054 203.226L455.983 205.9L456.786 210.179L458.927 214.725L460.532 216.062L468.025 223.014L468.56 225.421L468.293 227.025L468.828 228.095L471.236 227.293L474.18 227.827L476.856 229.432V231.304L476.053 232.106L476.321 233.443L473.912 239.861L474.18 241.198L480.067 246.813L484.081 247.883L486.757 251.894L487.292 253.766L488.898 255.37L488.63 257.242L488.095 257.777V258.579L489.433 261.52L490.236 262.59H491.306V261.52L495.32 257.777L501.207 260.451L501.742 260.183L502.01 259.114L500.404 257.777L500.939 254.3L502.545 253.498L503.08 253.766L503.615 253.231L506.291 252.696L505.221 251.092L504.953 249.487L506.826 247.348V247.08L505.756 244.406H507.094V239.326L510.305 234.78L511.376 231.304L512.714 229.699L512.981 228.095L512.178 226.49V226.223L512.446 225.688V225.421L510.305 222.479V220.608L511.376 216.329L507.897 174.882L506.559 172.208Z" fill="black"/>
<path d="M512.714 216.329L511.911 220.608V221.945L514.052 224.886V225.154V225.956L513.784 226.491L514.587 228.095L514.052 230.502L512.714 231.839L511.643 235.583L508.7 239.594L508.432 244.407L512.446 244.139L513.249 242.268L514.854 243.337L516.192 243.07L517.798 243.605L519.939 244.942L521.277 243.337L524.755 240.931L527.164 243.605L527.699 242.535L527.967 240.128L532.516 237.454L532.783 239.326L533.854 240.128L535.994 239.861L536.53 239.594V236.92L538.938 233.711L542.417 230.234V229.165L543.755 224.886L545.895 225.956L550.712 222.747L550.445 221.945L549.107 220.073L549.909 218.201L544.558 170.871V170.604L518.601 173.278L516.995 174.615L512.446 176.754L509.502 175.684L512.714 216.329Z" fill="black"/>
<path d="M410.492 147.339H386.944H385.873V147.607L386.944 148.944L386.676 150.548L386.141 150.815V151.35L387.211 151.618L388.014 153.757L386.408 158.303L385.873 161.244L386.676 162.314L386.944 163.383L387.479 164.72L388.014 165.79V167.394L388.549 169.266V170.068L389.62 173.01L391.493 176.754L391.76 179.695L393.901 183.973L394.169 188.787L395.507 189.321L395.239 191.996L396.042 194.937L395.239 196.809L396.577 199.75H417.717L440.195 198.681L452.505 198.146L454.378 199.483L454.913 200.82L455.448 201.622L456.251 201.889V200.552L455.448 199.75L456.786 197.611L459.194 197.076L459.73 196.274V194.402L461.335 191.996L461.603 189.589L461.068 188.787L460.265 188.519L458.927 186.647L459.997 182.636L463.208 181.834H465.082L468.025 180.497L469.363 178.893V177.021L469.631 176.754L470.433 175.951L471.236 173.545V171.673L469.363 169.266H468.293L467.222 167.929V166.592L466.42 165.523L463.476 163.918L464.011 163.116L463.476 161.512L460.8 160.977L458.392 159.64L456.518 154.826V152.42L457.856 149.746L457.589 149.478L455.716 147.874L455.448 146.27L440.73 146.804L410.492 147.339Z" fill="black"/>
<path d="M360.719 265.531H411.83L411.295 227.025L408.886 226.491L406.746 222.48L404.337 220.073L404.872 217.666L407.281 215.527V214.992L406.746 214.457L406.21 214.992L403.802 214.19L401.661 211.783H374.902L338.241 210.714L309.073 209.109L305.059 263.125L360.719 265.531Z" fill="black"/>
<path d="M544.558 227.026L544.022 229.165V230.769L540.008 234.78L538.135 237.454L537.868 240.663L536.53 241.465L533.586 241.733L531.445 240.396V240.128L529.572 241.198L529.305 243.337L527.164 246.011L524.488 243.07L522.347 244.407L520.474 247.081L517.263 245.209L515.925 244.674L514.587 244.942V245.209L513.784 246.813L511.911 246.546L511.643 245.744L509.502 246.011L510.038 246.813L508.7 248.685L508.164 248.15L506.559 250.022V250.557L507.897 252.429V254.033L504.418 254.568L503.883 255.905L502.545 255.103H502.277V257.242L503.615 258.579L503.08 261.521L501.207 262.055L495.587 259.649L492.912 262.055V262.858L494.25 263.66L493.982 264.997L493.447 266.066L494.25 266.869L492.912 271.147L492.376 271.414L508.7 270.345L507.362 266.869H511.911L512.446 267.403L530.91 265.799L533.319 265.264L547.769 264.462L552.05 263.66L569.176 262.59L573.458 261.521L579.345 257.777H579.88L580.415 256.172L582.021 255.638L582.824 254.835V253.231L584.697 252.161L584.965 250.557L587.908 247.616L590.316 246.813L593.26 242.802L592.19 242.535L591.119 241.198H589.781L585.767 235.85V235.315L585.232 235.048L584.697 234.245L582.824 232.641L583.091 229.432L582.824 228.63V227.56L582.021 226.491L579.077 225.154L578.275 222.48L576.401 223.549L575.866 225.154H574.796L573.458 225.956L572.923 225.689L572.12 225.154L569.979 224.619L569.176 224.886V225.956L566.233 225.689L564.627 224.084H562.754L558.74 223.549V222.212L557.135 219.806L555.261 219.003L553.923 219.538H551.515L551.247 219.271L550.98 219.806L552.05 221.41L552.318 223.549L546.163 227.828L544.558 227.026Z" fill="black"/>
<path d="M491.306 271.415H490.771V271.682L491.306 271.415Z" fill="black"/>
<path d="M746.057 84.7671L745.522 85.5693L746.325 86.3715H746.592L746.86 86.1041V85.8367L746.057 85.0345V84.7671Z" fill="black"/>
<path d="M764.789 64.4443L763.718 63.1073L761.578 60.7006H760.775L759.972 63.1073L756.226 59.631L756.761 58.5614V57.7592L755.423 54.2829L754.888 54.5504H750.071L749.804 51.0741L743.114 29.9492L737.494 27.0078H735.621L730.001 32.6233L726.79 31.2863L725.987 28.3448H724.917L719.298 43.8542L720.1 49.2023L718.495 51.0741L718.227 54.5504L719.03 57.2244H719.833V58.0266V59.631L718.495 63.3747L717.157 64.4443L716.354 66.3161L715.819 73.536L713.143 72.4664H712.875L722.509 102.416L723.044 105.357L725.72 106.961L726.255 108.833L727.861 109.635H728.128L728.931 107.764L728.128 104.822L729.466 104.02L730.001 102.416L729.199 100.811L731.607 99.4741L730.269 97.8697L731.339 95.1957L733.48 91.7194L734.015 94.6609L734.551 93.8586L735.889 94.6609L736.156 94.3934V93.0564L738.832 91.9868L739.1 89.3128L741.508 89.0454L743.381 86.6388L742.578 86.3713V82.8951L743.114 81.8255L741.776 80.4885L743.114 78.3492L743.916 78.6166L745.522 78.0818L746.057 80.4885H747.128L748.198 80.7559L746.592 78.8841L748.733 79.1515H749.001V75.9426L750.339 77.547L751.944 75.6752L753.817 75.4078L754.353 77.0122L754.62 77.2796V76.4774L756.226 75.6752L755.691 75.1404L755.958 72.4664L757.831 73.2686L758.902 72.4664L759.169 70.0597L761.042 70.3271L761.31 68.9901H762.648L762.916 69.2575L763.183 68.9901L764.789 66.0487V64.4443Z" fill="black"/>
<path d="M752.747 78.8841L752.212 78.6167L751.141 79.1515V79.9537L751.677 80.2211L752.212 79.9537L751.944 79.6863L752.747 79.1515V78.8841Z" fill="black"/>
<path d="M626.709 202.692L629.653 199.215L631.526 199.483L633.667 196.006L635.808 197.076L637.948 196.809L639.286 194.402H640.357L640.624 193.867L624.569 197.076L625.639 204.296L625.907 204.029L626.709 202.692Z" fill="black"/>
<path d="M673.539 187.45L643.568 193.333L644.906 194.135L647.849 193.867L647.314 195.472L647.582 195.739H648.385L648.652 196.541L649.723 197.076L649.455 198.413L650.793 198.681H651.863L652.666 199.483L654.004 199.75V201.355L653.737 201.889L654.272 202.157L654.807 202.424L655.61 202.157L658.018 202.959L657.751 203.494H659.088L659.891 202.157L663.37 204.564L661.497 207.238L661.229 208.842L660.159 209.912L660.426 210.179L660.159 210.446V210.714L659.624 212.586V213.923L659.891 214.19L660.694 213.388L661.764 212.586L662.835 213.12L663.905 214.19L664.44 214.992L665.511 215.26H665.778L666.849 215.527L667.652 214.992L669.257 215.527L670.595 216.597H671.13L671.665 216.329L672.468 217.131V216.597L671.13 214.992L670.863 212.586L669.525 211.783L668.454 210.446L667.652 207.505L666.849 206.435L667.384 205.098V203.227L667.652 202.692L666.849 202.157L667.919 201.087L667.384 200.552L667.652 200.018L666.849 199.215L664.173 197.878L667.116 197.076L667.652 195.472L668.722 194.135L669.257 194.402L670.863 192.53L670.06 191.461L671.13 189.856L673.806 189.054L673.539 191.728L673.806 192.53L673.539 193.065L674.341 194.135L672.201 194.67L671.665 195.204L670.863 197.076V198.146L671.13 198.681L672.201 197.878L673.003 201.087L671.933 201.622L673.003 202.424V205.366H673.271V206.168L676.482 207.505L672.736 208.307V208.575L674.341 209.644L672.736 210.446L673.271 211.249L674.074 212.318L674.341 213.12L675.412 213.655L675.679 213.388L675.412 212.853L676.75 210.179L678.623 211.783L678.088 212.853L678.355 213.12L679.693 213.388V214.457L680.764 213.655L680.496 216.062L681.299 216.597L680.764 217.666V218.201L681.031 217.399H682.369L682.905 216.597L686.651 215.527V214.725L687.186 213.655L687.454 212.051L688.792 210.446V208.04L679.961 209.912L673.539 187.45Z" fill="black"/>
<path d="M671.398 204.831V205.366H672.468L671.666 204.563L671.398 204.831Z" fill="black"/>
<path d="M670.328 202.424L670.595 201.889L670.328 201.622V202.424Z" fill="black"/>
<path d="M514.319 99.7412L513.516 100.009L512.981 101.078H513.249L514.052 99.7412H514.319Z" fill="black"/>
<path d="M573.458 150.281L573.19 150.548H573.458V150.281Z" fill="black"/>
<path d="M545.628 100.543L544.29 99.2065L542.417 98.9391L541.079 99.4739L537.6 97.6021L538.135 98.4043L535.994 98.1369L536.262 98.4043L533.854 100.543V101.346L534.924 102.95H536.53V104.822L534.389 105.357H532.783L531.178 106.961V108.566L531.445 113.646L529.572 116.855L529.037 116.588L528.502 119.262L526.361 114.716L526.896 112.844L526.361 111.774L526.629 111.507L526.093 112.042L524.755 114.448H523.685L523.417 115.251H522.347V115.785L522.615 117.925L520.206 118.994V119.262L521.009 120.599L520.741 125.412L519.671 129.156L518.601 130.76L519.404 131.83L520.206 135.039L519.136 137.178V138.782L520.474 141.189L522.347 145.2L523.417 147.072L525.023 152.955L524.755 160.442L523.953 163.918L522.347 166.325L521.544 169.534L520.206 171.673L545.895 168.999V170.068L562.754 167.394L563.022 166.592L565.965 161.779V158.303L567.036 156.163L568.641 155.629L570.247 149.211L571.852 148.409L573.458 149.211L573.725 143.061L572.387 140.921L571.317 137.713V135.841L569.444 132.097V130.76L568.641 128.353L566.768 125.947L564.895 125.412L561.416 127.551L559.543 131.027L559.275 131.83L556.332 135.306L554.459 135.039L551.515 132.364V128.888L553.121 126.749H554.726L555.529 125.679V122.203L556.599 121.134H557.402L557.937 120.331V112.577L557.67 111.774L556.867 110.972L555.261 110.17L554.994 107.763L556.332 106.694L556.867 106.961L555.261 104.822L554.726 103.752L554.191 103.218H552.585L545.628 100.543Z" fill="black"/>
<path d="M467.757 87.7082L465.617 88.7778H465.884L468.293 91.9867L482.208 94.9281L483.546 95.7303L486.757 96.5325L487.292 96.7999H489.433L493.982 97.3347L495.855 99.474L495.052 100.276L497.996 100.811L499.334 102.148L499.601 106.159L498.799 107.763H499.066L500.137 106.961L501.742 108.298L500.939 110.972L501.207 111.775H501.475L501.742 110.705L504.15 107.229L505.488 101.881L507.362 100.544L506.826 99.2066L508.164 97.0673L509.77 99.7414V100.009L510.573 99.474V97.0673L512.714 97.6021L513.516 95.9977L515.39 97.6021L514.319 99.474L515.925 98.137H516.192V96.2651L518.333 94.3933L524.755 94.1259L526.361 91.4519L530.107 91.1845L533.586 92.2541L536.53 94.1259L536.262 91.7193L537.6 91.1845L541.614 92.2541L542.417 91.9867L545.093 91.4519L546.698 91.7193H547.233H546.966L545.895 91.4519L544.29 90.3823L544.825 89.58H542.149L541.882 87.7082L543.487 86.3712L542.684 85.569L543.219 85.3016L542.684 84.7668L542.952 83.4298V82.6276L541.614 83.6972H540.544L540.008 85.0342L537.332 85.3016L537.065 84.232L536.262 84.4994L535.192 85.569L533.854 85.3016L533.586 84.7668L531.178 85.0342V79.9535L530.91 80.2209H529.037L526.093 82.3602L520.741 82.6276L517.53 83.1624L515.925 84.4994L514.854 85.569L512.981 86.906L511.911 89.3126L511.643 88.243L509.77 87.4408L509.502 89.0452L507.094 86.906H506.559L505.488 87.9756H502.01L501.475 86.3712L499.869 84.7668L498.531 83.4298V82.6276L497.996 81.8254L496.123 81.0231H493.179L492.376 80.2209H491.573L491.306 80.4883L489.7 82.0928L488.63 83.6972L486.757 82.3602L487.024 80.7557L487.827 78.8839L490.503 74.6055L491.306 74.3381L492.376 73.2684L493.179 71.3966L495.855 70.8618H496.123H492.911L491.306 71.1292L489.165 72.1988L488.362 73.001L487.024 74.8729L485.419 75.6751L482.743 78.3491L482.475 79.6861L475.785 83.9646L472.574 84.232L471.236 84.4994L469.363 86.906L467.757 87.7082Z" fill="black"/>
<path d="M380.254 52.6783L379.451 54.8176L379.986 55.8872L379.718 60.433L379.451 61.2352L381.592 68.4551L382.662 70.5944L383.197 82.0927L384.268 84.4993L383.732 89.3126L386.141 95.7303L386.408 100.544V104.287L385.338 106.159L382.93 107.763L382.662 108.031L384 110.17L384.268 111.24L386.408 111.774L388.014 113.646L387.746 146.002H410.492L440.73 145.2L455.448 144.665L454.645 141.724L454.378 139.317L453.04 137.445L450.631 136.91L446.082 133.434L445.547 130.76L440.195 128.353V127.551H437.787L435.646 125.145L433.773 123.808L434.308 119.262L433.505 118.192L434.04 113.111L434.843 111.774L434.576 109.903L434.04 109.368L432.167 109.1V106.694L434.576 101.613L439.392 98.4043L438.857 86.906L440.195 87.4408L440.463 86.6386L441.801 85.8364L441.533 85.569L445.547 82.6275L448.223 79.4187L449.561 78.8839L453.575 74.0706L458.927 68.9899L462.138 67.1181L467.49 64.9789L470.969 62.8397L470.701 63.1071H467.757L466.955 61.5027L466.152 60.9678L457.589 62.0375L456.786 59.6308H455.983L454.913 60.1656L451.702 62.8397H447.688L445.547 61.7701L445.279 60.433L442.068 59.8982L441.533 58.2938L441.265 58.0264L440.998 58.2938H438.322L430.026 53.748H427.618L427.083 53.2131L425.21 54.0154L424.407 55.3524L421.196 56.1546L419.323 55.6198V54.0154V53.748H413.971L413.703 52.4109H412.365L411.027 52.9457L408.351 51.0739L408.619 49.4695L408.351 47.8651L407.548 46.7955V44.3888L406.746 41.9822L405.408 40.9126H404.07V47.5977L378.648 47.3303L380.254 52.6783Z" fill="black"/>
<path d="M510.038 300.561L509.502 299.492L478.729 301.364L479.264 303.77L477.391 304.572L474.983 307.781L475.25 312.327L473.377 313.664H472.039L470.166 317.408L470.969 318.21V319.547L468.025 321.151L466.687 326.232L468.293 327.569L466.687 328.371L467.757 329.173V330.51L467.222 331.045L467.49 332.382L468.828 334.254L468.293 337.463L467.222 338.533L466.955 339.602L468.025 344.95L469.363 346.02L468.828 347.357L470.701 349.229V353.24H469.898L470.701 354.577L465.617 361.797L463.476 365.54L462.406 374.365L492.376 372.76L492.109 375.167L491.306 376.236L490.503 379.713L494.517 385.328L494.249 386.398L495.052 387.467L495.32 387.735L497.461 385.596L497.728 384.526L498.799 383.991L499.601 384.526L506.291 382.387L508.432 383.724H511.911L512.714 383.189L508.967 355.914L510.038 300.561Z" fill="black"/>
<path d="M492.376 267.404L491.574 266.601L492.376 264.462L492.644 264.195L492.109 263.927H489.7L488.095 262.323L486.489 259.114V256.975L487.292 256.44V255.905L485.954 254.568L485.151 252.429L483.278 249.22L479.264 248.151L472.842 242L472.307 239.594L474.715 233.443L474.18 231.571L475.25 230.502V230.234L473.645 229.432L471.236 228.897L468.025 229.967L466.42 227.293L466.955 225.421L466.687 223.817L459.73 217.132L457.589 215.795L455.448 210.714L454.378 205.901L455.448 203.227L454.645 202.692L453.575 201.622L453.04 200.553L451.969 199.75L440.463 200.285L417.717 201.355H397.915L397.647 202.692L399.253 205.366L402.464 210.447L404.605 212.853L405.675 213.121L406.746 212.051L408.886 214.725L408.619 216.33L406.478 218.469L405.943 219.806L408.084 221.678L409.957 225.154L412.9 225.956L413.436 266.334V274.623L445.279 274.089L478.997 272.484L480.602 274.891V277.297L480.334 277.565L479.264 278.634L477.391 281.576L484.884 281.041L485.686 279.704L486.489 279.437L485.686 278.634L484.348 276.495L486.489 276.763L485.419 275.426L487.292 274.891V274.623L486.757 273.821V273.019L485.954 272.217L486.489 270.345H488.362L489.165 271.415L490.236 269.008L491.574 270.078L492.376 267.404Z" fill="black"/>
<path d="M149.318 45.4587L147.98 49.2024L150.656 52.6786L152.262 53.2134L155.741 60.7007V62.3051L157.346 64.177H157.882L159.219 66.0488H162.163V68.188L156.276 82.3604L156.008 85.0344L156.811 85.3018L157.882 87.1737L159.487 86.3714L162.966 83.9648L165.107 86.3714L165.642 88.7781L165.374 91.1847L167.247 98.9394L169.388 101.613L171.529 102.95L171.796 105.892V109.101L172.867 110.17L173.937 108.566L179.824 109.903L181.698 108.833L188.923 110.17L191.063 107.764L193.472 106.962L194.81 109.101L195.613 111.24L197.218 103.218L245.921 109.636L287.665 114.181L289.271 97.6024L293.553 43.0521L249.399 38.5063L204.176 32.0886L149.854 21.9272L146.107 39.0411L149.318 45.4587Z" fill="black"/>
<path d="M386.408 166.057H385.606L383.465 165.255L382.662 162.848L381.859 162.046L376.775 160.174L376.24 159.372L375.169 159.105L373.831 159.64L373.029 159.105L372.226 159.372L371.691 159.105L370.888 159.64L370.353 159.105L369.817 159.64L368.479 159.105L367.141 160.709H365.001L363.128 159.105L361.79 158.837L359.114 156.431L327.537 155.094L285.792 152.152L282.849 187.182L310.411 189.321L309.073 207.505L338.509 209.109L374.902 210.179H400.591L397.915 206.168L396.042 202.959L396.309 201.889L395.507 200.82L393.633 196.809L394.436 194.937L393.633 192.263L393.901 190.391L392.831 189.856L392.563 184.508L390.155 180.23L389.887 177.288L388.282 173.545L386.944 170.336V169.534L386.408 167.662V166.057Z" fill="black"/>
<path d="M121.221 254.568L124.7 255.905L125.77 258.044H126.573L128.178 256.173L130.854 241.733L148.248 152.153L129.516 148.409L109.179 143.863L70.6453 134.771L57.2655 186.113L58.0683 188.787L116.137 274.623L116.672 273.554L116.939 271.415L116.404 267.136L117.475 255.37L121.221 254.568Z" fill="black"/>
<path d="M724.382 108.031L721.706 106.159L721.171 102.683L711.805 74.0709L710.199 74.3383L709.397 73.5361L708.861 74.0709L708.326 78.6168L709.397 80.4886L708.594 83.4301L710.199 85.5693V86.1041L709.932 87.1737V88.5107L708.861 90.65L707.523 91.1847L707.256 91.987L705.383 93.0566L705.115 93.5914L706.185 96.2654L705.918 98.4046L706.185 99.7417L705.383 101.346L705.65 102.95L704.58 104.555L704.847 106.427L704.312 107.496L704.58 110.705L705.383 112.042L704.847 114.181L705.65 115.786L705.383 118.192L705.115 118.995V119.797L706.185 121.401L720.903 118.46L721.438 117.658L721.706 115.786L723.579 115.251L723.847 114.449L725.72 113.379H726.255L726.79 110.705L725.185 109.903L724.382 108.031Z" fill="black"/>
<path d="M696.284 174.882L696.017 169.266H694.946L694.411 168.999H693.608L692.538 169.534L690.932 167.394L691.468 165.79V164.453L693.073 163.918L693.608 162.581L693.876 158.303L682.905 154.559L681.834 156.164V157.768L679.693 162.046L680.764 163.383L679.961 165.79L679.158 166.325L679.693 168.464L681.834 169.266L682.637 171.673L684.242 172.475L688.524 175.684L685.045 178.358L683.707 180.23L682.102 182.904L680.764 183.439L679.961 184.508L679.158 186.113L678.891 187.45L679.426 188.252L679.693 189.856L680.496 190.391L682.369 191.461L683.975 192.263L685.581 193.065V193.333L686.383 192.53L687.454 193.065L689.862 193.333L689.594 196.274V197.344H689.862L690.932 194.402L692.27 190.124L694.679 187.985L695.214 185.578L694.679 184.508L696.017 181.834V181.299L695.481 180.23L696.552 177.823L696.284 174.882Z" fill="black"/>
<path d="M226.921 348.426L256.357 351.368L282.046 353.507L288.736 271.147H289.271L289.806 263.927L247.259 259.916L204.176 254.568L189.993 355.914L201.5 357.518L202.57 349.229L226.921 352.438L226.654 351.903L226.921 348.426Z" fill="black"/>
<path d="M671.398 143.596L673.271 144.665L673.539 145.735H675.144L677.82 150.816L679.961 152.153H681.299L682.905 152.955L695.482 157.233L695.214 160.709L696.284 159.64L697.355 157.233L695.749 155.361L698.425 152.687L697.355 151.618L695.214 138.248L694.411 137.178L694.946 124.877L693.876 124.075L694.411 121.936L692.003 110.705L691.2 110.17L690.13 112.042L688.792 108.566L689.327 106.961L686.918 101.613L687.186 98.1371L687.454 97.3349L686.918 95.9979L687.186 94.1261L685.581 92.5216L685.045 89.3128L685.313 88.5106L683.975 87.7084L684.778 85.8366L684.51 85.3018L667.652 89.5802H665.778L664.44 90.6498L659.624 95.7305L656.413 100.811L655.877 102.95L650.793 108.031V109.903L652.131 110.705H654.004L654.272 113.379L653.201 113.914L654.539 116.588L654.272 120.064L652.666 120.599L651.328 120.866L649.455 123.273L647.314 125.68L644.906 126.749H642.498L639.822 127.284L638.216 128.621L637.146 128.889L634.202 127.551H630.991L624.301 128.621L618.414 131.83L618.682 133.702L619.752 135.841L621.357 136.108L622.963 139.585L621.893 140.922L620.287 142.526L619.752 144.665L616.541 146.805L616.006 148.142L612.527 151.083L613.062 154.827L671.398 143.596Z" fill="black"/>
<path d="M690.665 260.183L690.397 257.509L688.792 254.835H687.454L686.116 256.974L685.313 255.37H683.707L682.905 255.637L680.764 256.974L680.229 256.44L678.891 257.509L675.412 258.044V255.905L676.75 254.3L678.088 255.103H678.355L679.693 253.498L682.637 251.894L684.51 250.022H687.186L685.581 248.418V248.685L683.975 246.546L683.172 245.476L659.356 250.557L626.442 256.44L602.626 259.381V263.927L600.753 263.659L599.95 264.462L597.809 269.275L595.401 268.205L592.992 269.81L592.457 271.682L590.316 273.286L588.978 271.949V271.147L586.302 273.286L585.767 276.227L581.753 278.099L581.486 279.169L578.542 281.576L575.331 281.843L572.12 284.25L571.317 287.458L569.711 288.528H568.641L567.838 289.063V292.004L584.697 289.598L588.443 287.993H589.514L595.668 284.517L615.47 282.645L616.273 283.447L616.808 282.913L620.287 286.121L620.555 287.726L636.343 285.319L656.68 299.492L659.891 297.887L662.567 297.352H664.173L664.44 297.62L664.708 297.085L665.243 292.806L666.849 289.33L671.398 284.25L674.877 281.308L679.693 279.169L681.834 278.901L683.44 279.436L684.51 277.297L683.44 275.693L684.778 274.088L683.44 274.356L682.905 273.286L682.369 274.356L679.426 274.623L680.764 271.147L681.299 270.077L681.031 268.473H678.088L680.496 266.066L681.567 266.334L683.707 266.601L684.243 266.066H686.116L687.454 264.997V262.322L689.059 260.718L690.13 260.451L690.665 260.183Z" fill="black"/>
<path d="M687.454 250.289L687.186 250.022L687.454 250.557V250.289Z" fill="black"/>
<path d="M322.721 99.474L360.987 101.078L384.803 101.346V100.544V95.9978L382.127 89.5801L382.662 84.7668L381.859 82.6276L381.056 71.1293L380.254 68.99L377.845 61.2354L378.38 60.1657V56.1547L377.845 55.0851L378.648 52.6785L377.042 47.3304L331.284 45.9934L294.891 43.3193L290.877 97.0674L322.721 99.474Z" fill="black"/>
<path d="M571.852 174.079L568.106 172.475L569.979 171.673L569.176 170.871L567.571 170.336L565.43 169.534L563.557 169.801L562.754 168.731L546.163 171.673L551.515 217.934H552.05L553.656 218.201L555.261 217.399L558.205 218.468L560.346 221.677V222.212L563.022 222.747L565.162 222.479L566.768 224.351H567.571V223.816L569.979 222.747L572.923 223.816L573.458 224.084L574.261 223.549H574.796L575.063 222.479L578.81 220.608L579.345 221.142L579.88 221.945L580.415 224.084L583.091 225.153L583.894 226.49L586.035 225.688H586.838L587.105 223.014L588.176 222.479L587.105 219.538L588.176 218.468L588.443 216.597L589.514 213.922L591.922 214.725L592.457 216.062L592.992 215.259H593.26V214.725L591.387 213.388L592.992 212.585V210.981L594.33 208.574H595.401V208.04L597.274 205.9L598.344 206.97L599.682 205.633H600.217L601.288 204.563L603.161 201.622L603.964 201.087V200.018L603.696 198.948L604.499 196.006L604.767 191.193L605.569 188.787L605.034 186.915V185.31L603.696 183.171L605.569 182.101L601.823 158.837L595.133 162.581L592.19 164.988L587.908 170.068L583.359 170.336L580.415 171.94L578.275 173.545H576.669L574.796 172.475L573.19 172.742L571.852 174.079Z" fill="black"/>
<path d="M375.705 325.965L375.972 325.697L378.38 321.419L380.521 323.826L381.859 324.093L383.732 323.558L385.338 325.163L386.408 324.895L387.479 325.965L389.62 325.43L390.155 323.826L393.901 323.558L395.239 324.093L399.788 321.686L400.323 323.291L403.535 323.023L404.07 321.419L404.872 321.686L407.013 322.756L410.492 325.697L414.774 327.034L415.309 295.748L412.098 275.426L411.83 267.136H360.719L304.256 264.729L291.412 263.927L290.877 271.147L334.762 273.821L333.692 309.386L335.565 310.455L337.438 312.862H338.241L339.044 312.06L339.579 312.327L340.649 312.595L341.185 313.129L342.255 311.792L344.931 313.932L345.466 316.338L346.001 316.606L347.875 316.338L350.818 317.943H352.156L353.762 317.408L355.367 319.012L356.705 317.408L360.452 318.478L361.79 320.884H364.465L363.663 323.023L364.733 323.291L367.141 321.152L369.55 322.756L371.155 321.954L371.423 323.826L371.958 324.36L373.831 322.221L375.705 323.558L375.437 325.43L375.705 325.965Z" fill="black"/>
<path d="M15.5206 117.657L70.3777 133.167L108.911 142.258L115.869 111.774L118.01 107.229L118.545 105.357L119.08 104.822L118.545 103.752L115.869 102.683L116.137 98.4042L119.615 93.3236L121.756 92.5214L122.826 91.1844V89.5799L124.432 88.2429L127.108 83.6971L130.319 79.9534L130.052 77.8142L127.376 75.4076L126.038 72.4661L101.419 66.5833L99.0105 67.3855L94.1937 66.5833L93.1233 66.0485L92.053 67.1181L89.1094 66.5833L85.3631 67.1181L84.5603 67.6529L80.5463 67.3855L79.7436 65.781H79.2084L75.462 66.8507L74.124 66.0485L71.7157 66.8507L71.4481 64.9788L70.1101 64.1766L68.7721 63.9092L67.9693 63.107L65.561 63.3744L64.4906 62.5722H63.9554L63.1526 63.3744L58.0683 63.9092L51.9136 60.1656L52.7164 55.0849L52.4488 52.1435L50.308 49.4694H46.8293L46.2941 47.865L46.5617 47.0628L45.4913 48.1324L43.3505 47.865L43.0829 47.0628H42.8153L42.0125 47.5976L41.2098 46.7954V48.9346L39.8718 50.0043L39.069 52.6783V54.8175L35.3227 64.9788L24.0836 91.1844L21.1401 95.1954H20.3373V96.5324L16.0558 102.415L15.7882 104.555L16.5909 105.624V108.298L15.5206 109.1L14.7178 111.507V115.785L15.5206 117.657Z" fill="black"/>
<path d="M609.851 197.879L623.498 195.739L673.806 185.846L674.609 184.241L676.215 183.171L677.82 182.904L678.891 183.171L679.961 182.102L681.031 181.567L682.637 179.428L683.975 177.289L685.848 175.684L683.44 173.812L681.299 172.743L680.496 170.336L678.088 169.801L677.553 165.79L678.623 164.988L678.891 163.651L677.82 162.314L680.229 157.501V155.629L681.567 154.025L681.031 153.757L679.426 154.025L676.482 151.885L674.074 147.339H672.468L671.933 145.735L671.13 145.2L611.724 156.699L611.189 152.42L608.513 154.292L607.71 154.559L605.569 156.966L603.429 158.036L607.443 182.369L609.851 197.879Z" fill="black"/>
<path d="M724.382 134.237H723.579L723.044 132.365L719.298 133.434L721.706 143.328L721.438 144.13V144.398L724.917 142.259V140.387L724.114 139.585L724.649 138.782V138.248L722.776 136.911L724.382 136.643L723.044 134.237L724.382 134.771V134.237Z" fill="black"/>
<path d="M595.936 285.854L590.049 289.598H588.978L585.767 290.935L585.5 292.539L583.894 293.341L582.824 295.48L583.091 296.015L587.64 298.957L589.781 298.689L592.725 302.433L593.26 303.77L596.471 307.781L598.344 309.118H599.682L601.823 310.722L602.626 312.594L603.964 313.664L605.569 314.199L608.245 316.873V317.942L610.118 320.082L614.4 321.953L617.611 327.836L617.879 329.708L621.09 331.58L623.231 335.858L623.766 337.998H626.174L626.977 336.928H627.512L628.583 336.126L629.118 334.254L631.794 332.65V331.312L630.456 330.243L632.329 328.906L633.132 329.173H633.667L635.005 327.301L638.216 325.964L639.286 324.093L639.554 323.558L643.3 320.082L642.23 319.279L643.836 317.14H645.174L645.441 316.873H646.512L646.779 316.07L648.652 314.466L648.385 310.188L649.188 308.048L652.131 302.7L654.539 300.561L655.075 300.294L636.075 286.924L618.949 289.33V286.656L617.076 285.052L616.006 286.121L614.4 285.319L614.668 284.25L595.936 285.854Z" fill="black"/>
<path d="M384.268 105.09L384.803 103.753V102.95L360.987 102.683L322.453 100.811L290.609 98.6719L289.003 114.983L285.792 150.548L327.537 153.49L359.649 154.827L362.592 157.501L363.93 157.768L365.536 159.372L366.606 159.105L368.212 157.501L369.55 158.035L370.353 157.233L371.155 157.768L371.691 157.501L372.493 157.768L373.029 157.501L374.099 157.768L375.169 157.501L377.31 158.035L377.845 159.105L382.93 160.709L384 162.046L384.803 164.186L385.606 164.453H385.873L385.606 163.918L385.338 163.116L384 161.779L385.07 157.768L386.408 153.757L386.141 152.687L384.803 152.42L384.268 150.013L385.338 149.479L384.268 148.141V145.735L386.141 146.002L386.408 114.181L385.338 113.112L382.93 112.577L382.662 110.705L381.056 108.298L381.592 106.694L384.268 105.09Z" fill="black"/>
<path d="M569.444 286.924L569.979 286.656L570.514 283.18L574.796 280.506L577.739 279.971L580.148 278.099L580.683 277.03L584.429 275.158L584.964 272.484L588.711 269.275L590.316 269.543L590.584 271.147L591.119 270.612L591.654 269.008L595.133 266.334L597.006 267.136L598.879 263.392L600.217 262.055L601.02 262.323V259.114H598.879L598.612 260.183L573.993 262.857L569.176 263.927L552.318 265.264L547.769 265.799L533.586 266.601L531.178 267.403L511.911 269.008L511.376 268.473H509.77L510.573 270.612L509.502 271.949L489.968 273.019L489.165 274.356L488.362 273.821L488.898 274.356L488.63 275.96L488.095 276.228L488.898 277.03L487.56 278.367L488.095 278.902V280.239L486.757 280.773L486.222 281.843L487.827 282.913L486.757 284.517H486.489H486.757V286.122L485.151 286.389L484.884 287.191H484.081L485.151 289.063L483.813 290.133L484.348 292.272L482.475 291.737V292.004L481.94 294.411L481.405 294.144V294.678L481.137 295.213L481.94 295.748L481.672 297.085L482.475 297.887L481.137 299.759L480.334 299.492V299.759L509.77 297.887L547.769 294.411L566.233 292.272L566.5 288.528L568.106 286.924H569.444Z" fill="black"/>
<path d="M428.421 390.142L427.618 387.2L428.688 386.13L427.618 384.259L430.562 378.643V373.563H429.759L429.224 369.551L426.013 365.808L425.477 361.262L423.337 359.123L422.534 355.914L422.266 339.335L421.999 329.976L420.125 329.708L417.717 330.778L415.309 328.639L409.957 327.034L406.21 324.093L405.14 323.558L404.605 324.628L399.253 324.895L398.985 323.825L395.239 325.697L393.633 325.163L391.225 325.43L390.958 326.767L386.944 327.569L385.873 326.5H385.07L383.465 325.163L381.859 325.697L379.718 325.163L378.648 324.093L377.042 326.767L375.169 328.104L373.831 325.697L374.099 324.36L372.226 326.232L369.817 324.628V324.093L369.282 324.36L367.409 323.023L365.001 325.163L361.79 323.825L362.325 322.488H360.987L359.381 319.814L357.24 319.28L355.367 321.419L353.226 319.28L352.156 319.547H350.283L347.607 317.943H345.466L344.128 317.14L343.593 314.734L342.523 313.932L341.72 315.269L340.917 314.734L340.114 313.932H339.579L338.509 314.734L336.636 314.199L334.495 311.792L332.086 310.455L333.157 275.158L290.074 272.751L283.652 355.112L256.357 352.972L228.259 350.031V351.368L229.597 352.705L231.47 353.775L233.076 356.716L234.414 358.321L234.146 359.123L235.484 360.192L238.16 361.529L240.836 365.273L243.245 367.145L243.512 369.017L246.188 370.354V371.423L247.259 372.493H248.061L250.202 374.097L250.737 374.9L252.075 375.167V376.237L253.413 377.574L253.948 381.05L256.089 384.526V386.933L255.554 388.002L256.089 388.804L255.822 390.142L257.695 393.35L257.962 394.955L260.371 397.094L261.174 397.361L263.047 398.698L262.779 399.501L265.187 401.907L266.793 402.442L268.131 402.709L269.469 404.581L272.413 404.849L274.018 407.255H274.821L276.426 408.592H277.764V407.255L279.102 406.721L279.905 405.116H280.976L281.778 404.314L282.849 400.838L284.454 398.164L286.06 395.49L289.271 394.42L290.877 394.687L291.947 393.083L295.961 394.955H299.707L301.848 396.024H303.186L304.524 394.955L305.594 395.49H306.13L308.003 397.896L309.073 398.164V398.966L310.144 399.233V400.838L312.82 402.175V403.244L317.101 407.255L318.707 409.929V411.266L321.115 415.545L320.847 417.149L322.721 419.021L322.453 419.556L323.791 420.893L323.256 421.963L322.988 422.497L323.791 423.032L324.059 424.904L326.199 426.776L328.072 428.113L328.608 429.985L329.41 430.252L330.213 432.124V433.461L332.889 435.867H333.96L335.833 437.472L336.636 440.413L336.1 442.82L336.903 443.89L337.171 446.029L336.903 447.633L337.974 448.168V449.505L339.312 450.575L340.114 452.179L340.917 456.19L342.255 457.527V458.329L346.269 459.666L348.945 461.806L350.551 461.538L352.156 462.608L355.1 465.014L356.973 465.549H363.128L365.268 466.084L368.212 469.293H368.747V469.025L370.62 467.154L371.423 467.421L370.353 465.817L369.282 463.945V461.806L368.747 460.736L367.677 460.469L367.141 458.062L368.212 457.795L368.479 456.458L367.944 454.318L366.606 452.981V449.772L367.677 448.97L367.409 448.435L367.141 446.296L368.479 446.564V445.761L367.677 446.029L366.071 445.494V443.89L368.479 443.622L369.282 442.82L369.817 441.75L370.085 439.611L371.423 436.937H371.155L369.817 435.867L369.282 433.996L371.691 432.659L373.029 433.193L373.831 432.659L375.169 430.519L375.705 428.915L376.507 427.845H377.845L379.451 426.508L379.183 425.974L379.986 422.765L381.859 424.369H382.662L385.606 423.032L384.803 422.23L383.732 421.695L382.394 420.893L381.324 417.684H384.268L384.535 419.556L385.338 420.091L386.944 419.288L388.014 417.684L390.422 417.951L390.69 420.358L390.155 421.16V421.428L393.633 419.823L396.577 418.219L400.859 415.812L403.267 414.743L406.746 411.534L410.76 408.058L412.098 407.255H411.562L408.619 404.047L408.351 402.175L410.224 399.501L412.365 398.164H413.703L414.774 400.57L414.238 401.907V402.175H417.449L416.914 403.244H417.182L424.407 400.035L425.745 399.768L424.675 397.896L426.28 396.559L426.548 396.024L428.153 393.35L428.421 390.142Z" fill="black"/>
<path d="M202.838 252.964L212.203 181.032L185.444 177.021L188.387 158.838L149.854 152.42L132.46 241.198L170.191 247.883L202.838 252.964Z" fill="black"/>
<path d="M686.918 87.9755L686.651 89.58L686.918 91.7192L688.792 93.8584L688.524 95.7302L689.059 97.6021V97.8695L688.792 98.4043L688.524 101.346L691.2 106.961L690.397 108.566L690.932 107.763L693.341 109.903L696.017 121.936L695.481 123.54L695.749 123.808L704.58 121.936L703.509 120.331V118.727L704.045 117.925V116.053L703.242 114.448L703.777 112.309L703.242 110.972L702.707 106.961L703.242 106.159L702.974 104.287L704.045 102.683L703.777 101.078L704.58 99.7413L704.312 98.4043L704.58 96.5324L703.509 93.591L704.312 91.7192L705.918 90.917L706.453 89.8474L707.791 89.58L708.326 88.2429V87.1733L708.594 86.1037L706.721 83.6971L707.791 80.7557L707.256 79.686L685.848 85.0341L686.383 85.8363L685.848 87.1733L686.918 87.9755Z" fill="black"/>
<path d="M682.637 239.861L682.905 240.128L682.637 239.593H680.496L680.229 240.128L679.158 238.524H678.623L679.426 239.593L678.355 240.663L677.017 240.128H676.482L673.806 243.337L674.074 240.663L674.341 239.326V238.791L673.806 238.524L671.666 237.989V237.454V236.652V236.919L669.792 235.582L667.116 236.117L667.652 233.71L669.792 233.443L670.328 233.71L671.666 233.978L672.468 234.245L673.003 235.047V235.85L674.609 236.117L674.877 236.919L675.679 237.187L676.215 238.256L677.553 236.919H678.088L677.82 235.047L676.75 235.85L676.215 235.047H677.553L676.482 234.245L675.679 234.78L675.412 233.443H674.074L672.201 232.641L670.595 230.769L674.341 232.908L675.947 232.106L674.341 231.304L674.877 231.036L674.074 230.502L674.877 230.234L674.609 229.699L675.412 230.234L675.679 229.699L676.215 230.769L677.017 231.304L677.553 231.036L677.285 230.502L677.017 228.362H676.215L674.877 227.56L675.412 227.293L673.806 227.56H673.539L673.271 227.293H673.003L673.271 227.56H673.003V227.293L672.468 227.56L670.595 226.758L670.328 225.688L668.722 224.619L664.976 221.677L665.778 220.34L668.454 221.41L669.257 222.479L670.863 223.014L671.933 224.084L672.201 221.677L673.539 224.886H674.341V222.747L672.468 220.073H671.398L669.525 219.805L669.792 218.736L668.722 218.468V218.201H668.454L667.919 219.805L666.581 217.934H664.708L663.37 217.399L663.102 216.597L662.032 216.062V215.527H661.764L660.962 215.794L660.159 216.329H658.286L656.948 214.725L657.483 211.783L658.018 209.377L657.483 208.574L659.356 208.307L659.624 208.04L659.891 206.97V206.703V206.168V205.9H659.624L659.356 205.633L658.553 205.366L658.286 204.831H657.751H656.948L656.145 204.029V203.761H655.61L655.075 204.029L653.737 203.761L652.934 203.226L652.399 202.959L652.131 201.622L652.399 200.82H652.131L651.328 200.285H650.525L649.723 200.018L649.455 201.355L648.92 204.296L641.16 200.285L641.427 200.82L640.624 202.692L640.892 205.633L639.554 206.168L639.286 208.04L638.484 208.574L637.146 210.179L636.61 210.714L635.54 213.388L633.667 212.586L631.794 219.003L630.456 220.608L627.245 220.073L626.174 218.468L625.371 218.201V221.41L624.301 222.747L624.569 224.084L622.963 225.956L623.231 227.293L620.019 232.641L619.484 235.047L620.822 236.117L619.217 237.989L619.484 239.326L616.541 241.732L615.738 240.93L612.527 243.337L612.259 243.07L611.456 244.407L606.372 246.546L604.231 245.476L603.964 246.011L601.823 247.883L599.415 248.15L595.401 245.744L595.133 244.674L594.063 244.139L591.119 248.15L588.711 248.952L586.57 251.092L586.035 253.231L584.429 254.3V255.37L582.824 256.974L581.486 257.242L581.218 258.846L580.148 259.381L577.204 260.986L597.274 258.579L597.541 257.777L603.161 257.242V257.777L626.174 255.103L659.089 248.952L682.369 244.139L681.834 243.07L683.172 242.802L682.637 239.861Z" fill="black"/>
<path d="M686.116 218.468V217.131L683.707 217.934L683.44 218.468H683.707L683.44 222.212L682.905 221.677L681.299 225.153L681.567 231.571L682.102 232.373L682.369 231.036L682.102 228.63L682.637 227.827L682.369 226.49L682.905 226.223H682.637L684.242 224.084L684.778 225.153V223.816L684.51 221.945L685.313 219.805L686.116 218.468Z" fill="black"/>
<path d="M44.4209 44.1213L46.2941 45.4583H47.0969L48.4349 46.5279L47.8997 47.8649H50.8432L54.0544 51.3412L54.322 55.3522L53.5192 59.3633L58.3359 62.3047L62.3498 62.0373L63.4202 61.2351H65.0258L65.8286 61.7699L68.5045 61.5025L69.5749 62.5721L70.6453 62.8395L73.0537 63.9091V64.7114L74.3916 64.444L75.7296 65.2462L79.2084 64.1765L80.8139 64.444L81.3491 65.781L84.2927 66.0484L84.8279 65.5136L89.1094 65.2462L91.5178 65.5136L92.8558 64.1765L93.391 64.444L94.4613 65.2462L99.0105 66.0484L101.151 64.9788L126.038 71.129L126.573 68.455L126.038 64.9788L136.474 18.9854L117.742 14.7069L91.2502 8.02186L70.1101 1.87158L69.5749 2.13899L70.3777 5.08042L71.9833 6.41744V10.4285L71.1805 10.1611V11.4981H70.3777L69.0397 8.82407H68.5045L67.9693 12.3003L65.561 14.7069L67.1666 16.8462L66.899 19.2528L67.9693 20.3224V21.392H69.3073L69.5749 19.7876L68.5045 17.9158L67.7018 18.9854L67.9693 17.381L67.7018 15.5092L66.6314 14.9743L67.9693 13.9047L69.0397 14.7069L69.5749 14.1721L70.1101 12.5677L71.4481 14.1721L70.9129 17.6484V18.4506L71.9833 19.7876L71.4481 21.9268H70.3777L69.0397 23.2638L68.7721 25.4031L67.7018 25.9379L68.5045 28.6119L67.4342 28.0771V29.4141L67.1666 32.3556H66.0962V33.1578L64.4906 33.96L64.223 33.4252L62.3498 35.0296H62.0822L61.2795 35.8318H59.9415L59.6739 35.297L59.1387 36.3666L58.8711 35.0296L57.5331 34.4948V33.96L56.7303 34.2274L55.9275 32.8904L57.5331 31.5533L59.1387 31.8208V31.5533L59.9415 32.3556V30.4837L60.7443 29.4141L61.0119 30.4837L60.2091 31.2859L60.4767 32.8904L61.0119 32.3556L61.5471 30.4837L62.3498 29.9489L62.885 30.2163L62.3498 31.2859V32.3556L63.1526 32.623L63.4202 31.0185L63.9554 30.2163L65.0258 28.6119L64.7582 27.0075L64.223 27.2749H63.1526L63.9554 26.4727L63.4202 25.9379L63.9554 25.4031L64.223 26.7401L64.7582 25.9379V24.6009L64.4906 23.7987L65.561 24.6009L66.0962 23.7987H67.1666V20.5898H66.3638V21.6594L63.6878 23.5312L62.885 24.8683L61.2795 25.1357L59.9415 25.6705L57.5331 28.0771V28.6119L61.0119 28.0771L60.4767 28.8793L58.6035 29.1467H56.7303L57.5331 29.6815H55.9275V27.8097L57.8007 25.9379L58.0683 25.1357L61.2795 22.729L61.5471 20.8572L62.6174 20.5898L62.3498 21.392L63.6878 21.1246L62.6174 24.0661L64.7582 21.6594L65.2934 21.1246L65.561 19.7876L65.2934 18.718L66.0962 19.2528L66.3638 17.1136H65.561L65.0258 18.4506L64.7582 17.1136L65.8286 16.5788L65.2934 16.044H64.223L63.6878 18.1832V18.4506H62.885L62.6174 17.381L61.2795 19.7876L61.0119 15.7766H58.8711L54.322 13.6373L50.308 12.0329L44.9561 6.68484L43.0829 8.82407L42.8153 10.6959L42.5477 13.9047L43.8857 15.5092L44.1533 17.381L43.6181 22.4616V25.4031L43.8857 29.4141L43.6181 29.9489L44.9561 31.5533L46.8293 32.3556L46.5617 33.96H44.4209L43.8857 35.5644L43.0829 35.297V35.5644L43.6181 35.8318L44.6885 35.297L46.8293 39.0406L44.4209 38.5058L43.6181 41.1799L43.8857 42.7843L42.5477 43.3191L42.2802 43.0517V44.3887L43.0829 44.6561L44.4209 44.1213Z" fill="black"/>
<path d="M605.837 183.706L606.105 183.973L605.837 183.706Z" fill="black"/>
<path d="M588.176 227.026H586.302L584.429 228.095V228.363L584.697 229.165L584.429 231.839L585.767 233.176L586.302 233.978L587.373 234.513V235.583L590.584 239.594H591.654L592.992 241.198L593.528 241.465L595.133 241.198L596.471 242.268L595.936 243.07L596.739 243.605V244.942L599.95 246.546H601.288L602.626 245.209L603.429 243.07L606.372 244.942L610.386 243.337L609.851 242.802L610.921 240.396L612.527 241.465L616.273 238.524L616.808 239.326L617.879 238.524L617.611 237.454L618.682 236.385L617.611 235.583L618.682 232.106L621.625 227.026L621.357 225.421L622.963 223.549L622.695 222.48L623.766 220.875L624.033 216.33L627.245 217.132L628.315 218.736L629.653 219.004L630.456 218.201L632.597 210.447L634.737 211.249L635.272 209.912L636.075 209.11L637.413 207.505L637.948 206.97L638.216 205.366L639.286 204.831L639.019 202.692L639.822 200.82L639.019 199.483L639.554 197.611L647.85 201.89L648.117 200.82L648.385 199.483H647.85L648.117 197.879L647.314 197.611V197.344H646.779L645.709 195.739L644.371 196.007L642.498 194.67H641.962L641.16 196.007H640.089L638.751 198.146L635.54 198.681L634.202 198.146L632.061 201.088L630.456 200.82L628.047 203.494L627.245 205.099L624.569 207.238L622.963 197.344L608.513 199.75L606.907 189.322L606.105 191.461V196.274L605.302 198.948L605.569 199.75L605.302 202.157L604.231 202.692L602.626 205.366L600.753 207.238H600.217L598.344 209.11L597.541 208.04L596.739 208.842L596.471 210.179H595.133L594.598 211.516V213.388L594.33 213.655L594.866 213.923V216.597L593.795 216.864L593.26 217.399L591.387 218.201L590.852 216.062L590.584 215.795L590.049 216.864L589.781 219.004L588.978 220.073L590.049 223.015L588.711 223.817L588.176 227.026Z" fill="black"/>
<path d="M508.967 109.101L508.432 109.368H508.967V109.101Z" fill="black"/>
<path d="M436.716 124.075L438.322 125.947H441.533V127.284L446.885 129.958L447.42 132.632L451.434 135.306L453.843 135.841L455.983 138.782L456.251 141.456L457.054 145.2L457.321 147.072L458.927 148.409L459.462 149.746L458.124 152.687V154.559L459.462 158.57L461.335 159.64L464.546 160.174L465.617 162.581L502.545 160.174L502.277 157.5L502.545 155.361L501.475 154.292V152.152L500.404 151.083L500.939 150.013L500.137 148.409L500.404 148.141L499.869 147.339L501.207 142.793L502.01 139.584L501.742 136.643L501.475 135.038L502.01 132.632L501.742 130.76L503.883 129.156V128.621L503.348 126.749L503.615 123.005L506.024 116.855L506.559 116.32L507.629 112.309H508.164L508.432 111.24V110.972L506.826 111.774L506.559 113.379L506.024 114.181L505.221 117.122L502.277 117.925L500.939 121.401L499.334 122.203L499.066 123.54L497.461 124.877L496.39 123.273L496.658 120.331L498.531 117.39L498.263 115.251L500.939 114.448V113.379L500.404 113.111L499.066 111.24L499.869 109.1L499.601 109.368L496.39 109.1L497.996 105.892V102.683L497.193 102.148L494.249 101.613L492.644 100.276L493.714 99.4739L493.179 98.939L489.433 98.1368L486.757 98.4042L486.222 97.8694L482.743 97.3346L481.672 96.5324L467.49 93.3236L464.814 90.1147L461.87 89.0451L460.265 87.9755V88.2429L457.054 89.8473L456.251 87.9755L457.321 86.6385L457.054 85.3015L458.124 83.9645L458.659 83.1623L457.856 82.6274L456.786 83.6971L456.519 83.1623L455.448 84.2319L453.307 85.3015V85.0341L453.04 85.3015H452.237L451.969 85.8363L445.815 88.2429H443.674L442.871 88.5103L441.801 87.7081V88.5103L440.73 89.3125H440.463L440.998 99.2064L435.914 102.683L433.505 107.229V107.763H434.843L436.181 109.368L436.449 112.042L435.646 113.646L435.111 117.657L435.914 118.994L435.378 123.005L436.716 124.075Z" fill="black"/>
<path d="M198.556 104.822L196.951 112.844L189.993 158.303L187.317 175.952L213.274 179.695L250.737 184.508L281.243 187.182L284.187 151.35L287.398 115.518L245.653 111.24L198.556 104.822Z" fill="black"/>
<path d="M654.004 459.399L654.807 457.794L654.272 455.388L654.004 454.051L655.075 450.307L656.68 449.772L655.877 444.692L655.61 435.867L654.807 430.519L654.272 429.182L648.92 420.091L644.638 412.336L642.498 409.662L641.427 406.453L641.16 402.977L641.962 402.709L641.427 401.105L637.948 397.896L631.526 389.607L626.709 381.05L623.231 371.958L622.695 369.017L621.625 368.214L621.357 365.54L618.949 365.808L615.203 365.006L614.132 364.471L613.062 365.273V366.61L614.4 368.482L613.865 372.76L611.189 373.562L609.851 372.225L609.316 370.086L567.838 372.76L565.162 367.68L525.558 371.958L525.291 373.295L526.896 375.167L528.234 375.702L529.305 377.306L529.037 382.654L537.868 380.515L545.895 379.98L552.853 381.584L559.81 385.863L561.951 386.398L564.092 388.537V390.409H565.162L566.768 389.339L568.909 389.607L570.247 389.072L572.387 387.467L575.063 384.793L576.669 384.259L577.204 384.793H577.739L577.472 384.526L576.937 383.724L577.204 382.387L579.345 381.05L584.162 380.782L584.697 381.584L585.5 381.852L587.373 382.654L590.049 384.259L591.119 385.596L591.922 386.665L594.598 388.002V389.874L596.471 391.211H597.274L598.879 392.815L599.415 393.885L600.485 394.152L601.02 395.757L601.555 395.222H604.767L605.302 396.826L606.372 397.629V398.698L608.78 400.57L609.048 409.127L607.442 413.406L608.245 414.475V417.684L607.71 418.754L607.978 419.021L609.851 421.16H610.118L610.654 419.021L608.245 417.951L608.513 416.347L611.724 415.812L612.259 417.417V416.882L614.4 417.417L615.203 418.486V419.556L612.794 423.032L612.527 424.102L611.189 425.439V425.706L614.132 428.915L618.414 435.333L620.019 436.937L620.555 436.67V436.135L620.019 434.53L621.893 432.659L622.695 434.263L623.231 434.798V439.878L622.428 439.344L622.695 439.611L623.231 441.215L624.033 440.948L626.442 442.285L628.315 444.157L629.653 448.435L631.526 451.377L631.794 451.109L634.47 450.575L637.948 451.912L638.216 453.516L640.892 456.725V457.527L643.3 460.201L642.23 461.003V462.34L643.836 463.143H644.906L647.047 461.538L648.652 461.805L649.187 462.073L650.793 461.003L651.061 459.934L652.399 460.468L654.004 459.399Z" fill="black"/>
<path d="M655.877 458.597L655.075 459.399L654.272 461.538L653.201 462.875L652.666 464.212L651.061 466.084V466.886L653.469 464.479L655.342 461.538L655.877 459.934L657.483 455.923L657.215 454.051L655.877 458.597Z" fill="black"/>
<path d="M649.455 467.154L648.117 468.758H649.187L650.258 467.421V466.886L649.455 467.154Z" fill="black"/>
<path d="M643.836 471.7H644.638L647.047 469.293L644.638 470.63L643.836 471.7Z" fill="black"/>
<path d="M640.357 470.897L638.484 471.7L637.146 472.234L634.202 474.909L632.864 475.176V475.711H634.737L637.948 473.571H639.822L641.962 472.769L640.624 471.967L640.357 470.897Z" fill="black"/>
<path d="M626.709 476.513H628.047L627.512 475.71L626.709 476.513Z" fill="black"/>
<path d="M457.589 401.105L459.997 402.174L460.8 401.907V401.64L458.659 400.837L457.589 401.105Z" fill="black"/>
<path d="M502.812 404.581L502.01 403.779L499.601 403.244L497.461 403.512L493.447 401.105V398.431L494.249 397.896L493.714 397.629L494.249 395.757H497.461L498.799 393.885L496.658 392.548L497.193 391.211L496.925 390.944L495.587 392.281V393.885L494.517 394.955L492.911 394.687L491.573 393.618H489.968V391.211L490.503 390.676L489.968 389.874L489.7 390.142L488.898 391.479L486.222 392.281H484.616L480.87 391.211L481.672 389.339L483.278 387.735L484.081 385.863V385.061H485.419L487.292 386.131L487.827 386.933H489.7L491.573 387.735L491.841 389.607L491.306 390.142L491.573 390.409L492.376 389.607L492.911 388.27L491.841 386.665L492.109 385.596L488.095 379.98L488.898 375.702L489.7 374.632L459.73 376.237L461.335 365.273L463.476 361.262L468.293 354.844L466.152 351.903H468.56V350.298L466.419 348.159L466.955 346.822L466.152 346.02L464.814 339.602V339.335L423.069 340.405L423.337 355.914L423.872 358.588L426.012 360.995L426.548 365.54L429.759 369.284L430.294 372.493H431.364V379.445L428.688 384.526L429.759 386.665L428.688 388.002L429.224 390.409V394.153L427.35 397.094V397.896L426.28 398.699L426.548 399.501L427.083 400.036L428.153 399.233L432.97 398.431H438.322L446.35 401.64L452.772 402.442L453.842 401.373H454.645L453.307 399.501L456.786 397.094L459.194 396.827V398.164L463.208 397.896L463.476 400.036L464.279 400.303L464.814 401.907L468.56 402.71L470.433 404.314V405.918H469.095L468.56 406.453L469.095 406.988L473.645 407.79L475.25 409.395V409.127L477.659 408.592L477.926 406.988L478.729 406.721V405.384L481.137 405.651V406.988H481.94L482.743 405.384L484.616 405.918L484.884 407.79L486.757 408.058L486.489 408.325L487.024 408.058L487.56 407.523L486.757 406.186L487.56 404.849V402.71L489.433 401.373L489.968 401.907L490.503 401.64L492.109 401.373L492.911 403.244L492.644 404.047H493.714L498.263 405.651L498.799 406.988L499.869 407.79H502.01L502.812 408.325L503.615 407.79L504.15 406.721V406.186H503.348L502.812 404.581ZM478.729 390.142V387.2L480.602 385.328L482.743 386.131V387.468L483.01 387.2L480.602 390.142H478.729Z" fill="black"/>
<path d="M693.341 256.172L692.27 253.766L690.397 251.092L688.256 248.418L686.383 244.942L685.848 244.407L687.721 247.883L687.989 248.953L690.665 253.498L692.27 255.37L693.341 256.172Z" fill="black"/>
<path d="M690.13 254.301V255.103L692.27 256.975L692.003 255.638L690.932 254.301H690.13Z" fill="black"/>
<path d="M694.946 257.51L693.608 256.44L694.946 259.916L695.482 262.59V265.532L691.468 268.206L689.327 270.345V271.682L692.003 269.008L694.679 266.869L696.017 266.601L695.749 260.184L694.946 257.51Z" fill="black"/>
<path d="M719.833 150.548V151.083L719.03 151.885L718.227 150.816L716.889 151.618V152.42L716.086 152.153L716.622 151.618L715.551 150.816L715.016 151.618L715.819 151.885V152.42L715.551 152.687L714.481 154.827H712.875L713.678 153.49L714.481 152.955L714.748 151.618L715.819 150.281L716.622 149.478L717.96 148.944L716.889 148.676L716.354 149.478H715.551L714.748 150.281L714.481 151.083L712.875 152.687L712.34 153.49L711.27 154.292L704.847 155.896L705.115 156.698L704.312 157.233L702.707 157.501L701.636 156.966V157.768L700.566 157.501L700.833 158.303H699.763L698.693 158.57V159.64H697.622L697.89 160.442H697.355L697.622 161.244L696.017 161.512L694.679 163.383V165.255L695.214 165.79L696.284 165.523L697.087 165.79L697.89 164.72H699.495L701.369 163.918L705.65 162.046L705.383 161.779L703.777 162.314L702.171 163.116V162.581L704.312 161.512L705.115 160.709H706.185L709.397 158.838V159.372L705.918 162.046L709.664 159.64L711.27 157.768H712.34L716.086 155.094L718.762 152.687L721.438 150.548L722.241 149.746L720.636 149.478L719.833 150.548Z" fill="black"/>
<path d="M718.495 147.339L720.1 146.27L719.03 146.537L718.495 147.339Z" fill="black"/>
<path d="M724.649 146.537V147.339H725.452L725.987 147.072L725.185 145.735L724.649 146.537Z" fill="black"/>
<path d="M692.538 165.255V166.057L692.003 167.394L692.538 167.929L694.411 166.057V165.255L693.876 164.988L692.538 165.255Z" fill="black"/>
<path d="M33.7171 277.565L32.6467 275.693L29.7031 275.158L30.5059 277.565H33.7171Z" fill="black"/>
<path d="M40.1394 277.832L40.9422 277.03H38.2662L34.7874 275.158V277.03L36.393 278.1L40.1394 277.832Z" fill="black"/>
<path d="M54.8571 295.213L55.6599 294.679L54.5895 292.539L52.1812 290.667L51.3784 290.935L52.7164 294.411L54.8571 295.213Z" fill="black"/>
<path d="M49.7728 301.898L51.3784 303.503L52.4488 303.235L49.7728 298.957V301.898Z" fill="black"/>
<path d="M382.662 425.974L379.718 427.845L379.183 429.182L372.226 438.809L369.817 445.494V452.714L373.029 462.608L373.296 466.351H373.831L373.564 462.608L370.62 452.179L370.353 445.494L374.367 436.937L379.451 429.985L385.606 425.706V425.171H384.803L382.662 425.974Z" fill="black"/>
<path d="M65.2934 24.6011V26.2055L65.8286 27.0077L66.3638 24.6011H65.2934Z" fill="black"/>
<path d="M66.6314 0H65.561V0.534807L66.6314 1.06961V0Z" fill="black"/>
<path d="M63.9554 5.88278L63.1526 5.08057H62.3498L63.9554 6.41758V5.88278Z" fill="black"/>
<path d="M62.3498 6.68506L62.6174 9.09169L63.9554 10.1613L64.4906 8.55688L63.6878 6.68506H62.3498Z" fill="black"/>
<path d="M66.3637 7.75464V6.15022L65.561 5.88281L64.7582 6.95243L65.2934 7.48723L65.0258 8.28944L66.3637 7.75464Z" fill="black"/>
<path d="M65.561 5.08088L64.4906 4.81348L65.0258 5.88309L65.561 5.08088Z" fill="black"/>
<path d="M67.7017 7.75481L68.2369 7.48741L67.7017 6.41779L66.6313 6.15039L66.8989 8.02221L67.7017 7.75481Z" fill="black"/>
<path d="M65.561 11.4986L66.6313 11.2312V10.1615L67.7017 8.82453L66.8989 8.55713L66.3637 9.89415V8.55713H65.2934L64.7582 9.89415L65.0258 10.9638L65.561 11.4986Z" fill="black"/>
<path d="M64.4906 30.4838L64.223 31.0186L64.7582 31.286L65.0258 30.7512H66.0962L65.2934 28.8794L64.4906 30.4838Z" fill="black"/>
<path d="M61.547 32.356H61.2795L61.0119 32.8908L60.7443 33.4256V34.2278L61.2795 33.693V33.1582L61.8146 32.8908L61.547 32.356Z" fill="black"/>
<path d="M70.6453 6.15004L69.8425 5.61523H68.7721L69.5749 8.28927L70.6453 6.15004Z" fill="black"/>
<path d="M70.3777 15.2422H68.7721L68.5045 17.114L69.0397 17.6488L69.5749 19.2532L70.1101 18.9858L69.3073 16.5792L70.1101 16.0444L70.3777 15.2422Z" fill="black"/>
<path d="M527.164 101.613L527.967 101.881L528.234 101.079L528.502 99.7416L528.234 99.2068L527.967 98.4046L527.164 98.1372V98.9394L526.896 99.7416V101.346L527.164 101.613Z" fill="black"/>
<path d="M542.149 97.0675V96.2653L540.811 95.9979L540.276 95.7305H539.473L539.206 95.9979L540.008 96.2653L540.811 97.3349L542.149 97.0675Z" fill="black"/>
<path d="M538.135 94.6606V95.4629L538.938 95.1954V94.6606H538.135Z" fill="black"/>
<path d="M520.474 113.112H521.277V112.31H520.474V113.112Z" fill="black"/>
<path d="M522.615 110.17L521.009 109.903V110.705L522.615 112.042V110.17Z" fill="black"/>
<path d="M478.729 64.9792L481.137 63.3747L480.067 63.1073L481.94 61.7703H483.01L485.419 60.1659V59.3637L486.757 57.7593L484.616 58.0267L482.475 59.6311L476.588 63.9096L477.123 64.7118L478.729 64.9792Z" fill="black"/>
<path d="M552.585 92.7891L552.853 92.2543V90.6498L551.515 89.0454L549.909 89.3128L549.642 89.5802L550.712 89.8476L549.374 90.6498L549.107 91.452L548.571 90.9172L548.304 91.7194L549.374 92.5217L552.585 92.7891Z" fill="black"/>
<path d="M509.77 106.159L509.502 107.229L510.573 108.566L511.643 105.892L509.77 106.159Z" fill="black"/>
<path d="M462.941 79.4189L462.673 81.0234L463.744 80.756V79.4189H462.941Z" fill="black"/>
<path d="M462.406 82.3603V81.5581L460.532 82.0929L460.265 82.6277H461.87L462.406 82.3603Z" fill="black"/>
<path d="M461.335 83.9645L461.603 83.4297H460.8L460.532 84.2319L461.335 83.9645Z" fill="black"/>
<path d="M459.997 84.2319L458.659 85.569V86.1038L459.997 85.569V85.0341L460.8 84.7667L460.265 84.2319H459.997Z" fill="black"/>
</svg>
